# xmcd
#
# Track frame offsets:
#	150
#	15620
#	30933
#	46426
#
# Disc length: 894 seconds
#
# Revision: 0
# Processed by: cddbd v1.5.2PL0 Copyright (c) Steve Scherf et al.
# Submitted via: audiograbber 1.83.01
#
DISCID=23037c04
DTITLE=Mariska - Keinu [CDM)
DYEAR=2005
DGENRE=Hip-Hop
TTITLE0=Keinu (Radioversio)
TTITLE1=Keinu (Albumiversio)
TTITLE2=Keinu (Lex L. Remix)
TTITLE3=Keinu (JM-dub)
EXTD=TR.
EXTT0=
EXTT1=
EXTT2=
EXTT3=
PLAYORDER=
